<svg width="46" height="37" viewBox="0 0 46 37" fill="none" xmlns="http://www.w3.org/2000/svg">
<path d="M43.7574 19.7199C42.7932 18.0583 41.4759 16.7625 39.8056 15.8284C38.1354 14.8986 36.293 14.4294 34.287 14.4294C32.281 14.4294 30.4429 14.8943 28.7683 15.8284C27.0981 16.7625 25.7679 18.0583 24.7864 19.7199C23.805 21.3815 23.3142 23.2584 23.3142 25.3419C23.3142 27.4297 23.805 29.3109 24.7864 30.9811C25.7679 32.6513 27.0981 33.9557 28.7683 34.8855C30.4386 35.8196 32.281 36.2845 34.287 36.2845C36.293 36.2845 38.1268 35.8196 39.7884 34.8855C41.4501 33.9557 42.7673 32.6513 43.7402 30.9811C44.7131 29.3109 45.1995 27.4297 45.1995 25.3419C45.1995 23.2584 44.7174 21.3815 43.7574 19.7199ZM38.3765 29.8446C37.352 30.9811 35.9917 31.545 34.287 31.545C32.5651 31.545 31.1919 30.9811 30.1674 29.8576C29.1428 28.734 28.6306 27.2274 28.6306 25.3419C28.6306 23.4392 29.1428 21.9282 30.1674 20.8133C31.1919 19.6984 32.5651 19.1431 34.287 19.1431C35.9874 19.1431 37.352 19.707 38.3765 20.8305C39.401 21.9541 39.9133 23.4607 39.9133 25.3462C39.909 27.2101 39.3967 28.7082 38.3765 29.8446Z" fill="#FAFAFA"/>
<path d="M17.4597 16.345C15.7077 15.1096 13.5553 14.4897 10.9983 14.4897C8.88901 14.4897 7.01645 14.9503 5.37635 15.8715C3.73624 16.7927 2.45343 18.0798 1.53222 19.7329C0.611007 21.3859 0.150391 23.2627 0.150391 25.3721C0.150391 27.4814 0.611007 29.3539 1.53222 30.994C2.45343 32.6341 3.74056 33.917 5.39358 34.8382C5.72935 35.0276 6.07803 35.1955 6.43532 35.3461C5.36775 34.369 4.90714 33.1163 5.11376 31.6268C5.26012 30.5894 5.66908 29.7328 6.35784 29.1C5.74657 28.1056 5.43662 26.8615 5.43662 25.3721C5.43662 23.5296 5.94456 22.0531 6.95618 20.9468C7.96779 19.8405 9.31518 19.2895 10.9983 19.2895C11.9712 19.2895 12.8149 19.4789 13.5381 19.8534C14.257 20.2279 14.808 20.7703 15.1954 21.4806H20.9423C20.3741 19.2938 19.2118 17.5805 17.4597 16.345Z" fill="#FAFAFA"/>
<path d="M23.8617 31.434C22.8209 28.9673 21.2915 26.8673 19.1887 25.1589C18.3094 24.4464 17.498 23.6548 16.6611 22.8922C15.9941 22.2839 15.2337 21.9256 14.2949 22.0131C13.3305 22.1047 12.3662 22.1922 11.4019 22.2839C11.0875 22.3131 10.8964 22.4922 10.7859 22.7881C10.6075 23.2589 10.4078 23.7256 10.1997 24.1881C10.051 24.5173 10.1614 24.7381 10.4673 24.8714C11.1428 25.1673 11.848 25.2714 12.5829 25.1173C12.9907 25.0339 13.3518 24.9673 13.7214 24.6673C14.0612 24.3923 14.6602 24.4173 15.153 24.3464C15.2422 24.3339 15.3781 24.5006 15.4631 24.6048C16.4827 25.9048 17.481 27.2214 17.7783 28.9006C17.8378 29.2298 17.9695 29.5423 18.1012 29.9715C15.9559 28.7298 14.0995 28.8965 12.4979 30.7298C12.4682 30.7048 12.4427 30.6798 12.413 30.659C12.7231 30.2298 13.0332 29.8006 13.3688 29.3381C13.3178 29.2798 13.2583 29.1881 13.1734 29.1215C11.8352 28.0298 10.3356 27.6381 8.6661 28.2131C8.11385 28.4048 7.65507 28.6756 7.27698 29.0131C6.59728 29.6215 6.19371 30.4506 6.04927 31.459C5.84111 32.9007 6.29566 34.1132 7.35345 35.059C7.45965 35.1507 7.56158 35.2465 7.67628 35.334C8.5429 35.9923 9.57097 36.0632 10.616 35.9632C11.096 35.9173 11.5846 35.8548 12.0476 35.7257C12.6763 35.5465 13.2838 35.5673 13.904 35.7132C16.8438 36.4132 19.5286 35.659 22.0987 34.3007C22.7826 33.9382 23.3646 33.4382 23.7767 32.7757C24.0443 32.3506 24.0698 31.9256 23.8617 31.434Z" fill="#FAFAFA"/>
<path d="M1.83828 14.9911C1.96683 14.6989 2.19393 14.4775 2.53245 14.2738C9.19999 10.2707 15.8632 6.25434 22.5136 2.21583C23.0793 1.87486 23.4735 1.90143 24.0177 2.26897C30.291 6.5156 36.59 10.7357 42.8633 14.9911H46C45.8672 14.8539 45.7086 14.7255 45.5201 14.6015C38.484 9.90759 31.4651 5.19157 24.4676 0.440131C23.6106 -0.144389 22.9636 -0.135533 22.1023 0.400278C19.0128 2.32211 15.8847 4.17309 12.5338 6.19677C12.5338 5.05873 12.4866 4.16866 12.5466 3.28303C12.6109 2.36196 12.2253 2.1007 11.3897 2.12284C9.58138 2.16712 7.77307 2.18041 5.96478 2.11841C5.02207 2.08742 4.77355 2.47267 4.79497 3.38487C4.84639 5.61225 4.84209 7.83963 4.7821 10.067C4.76925 10.4655 4.46501 10.9925 4.13935 11.2228C3.16664 11.9136 2.14252 12.5291 1.09268 13.087C0.291378 13.5121 0.00428505 14.0701 0 15H1.83828V14.9911Z" fill="#FAFAFA"/>
</svg>
